<svg xmlns="http://www.w3.org/2000/svg" width="300" height="300" viewBox="0 0 300 300"><rect width="100%" height="100%" fill="#f0f0f0"/><path fill="#333333" d="M76.825 138.515h-11.23v7.02h8.85v3.62h-8.85v7.16h11.23v3.76h-15.96v-25.31h15.96zm3.48-4.45h4.33v14.9h.8q.44 0 .69-.12.26-.11.52-.46l4.46-5.51q.28-.37.62-.56.34-.2.89-.2h3.95l-5.58 6.67q-.6.79-1.3 1.21.37.26.66.61t.55.75l5.99 8.72h-3.91q-.5 0-.87-.17-.37-.16-.61-.6l-4.59-6.81q-.24-.4-.51-.52-.26-.13-.78-.13h-.98v8.23h-4.33zm24.7 26.29q-2.35 0-3.6-1.32t-1.25-3.65v-10.03h-1.84q-.35 0-.59-.23-.25-.22-.25-.68v-1.71l2.89-.48.91-4.9q.09-.35.33-.54.25-.19.63-.19h2.24v5.65h4.8v3.08h-4.8v9.73q0 .84.41 1.31.41.48 1.13.48.4 0 .67-.1.28-.1.48-.2l.36-.2q.15-.1.31-.1.19 0 .32.1.12.09.26.29l1.29 2.1q-.94.78-2.17 1.19-1.22.4-2.53.4m14.98-18.52q1.99 0 3.63.65 1.63.65 2.8 1.84 1.16 1.19 1.79 2.9.63 1.72.63 3.84 0 2.13-.63 3.85-.63 1.71-1.79 2.92-1.17 1.21-2.8 1.85-1.64.65-3.63.65-2.02 0-3.66-.65-1.65-.64-2.81-1.85t-1.8-2.92q-.64-1.72-.64-3.85 0-2.12.64-3.84.64-1.71 1.8-2.9t2.81-1.84q1.64-.65 3.66-.65m0 15.18q2.24 0 3.31-1.51 1.08-1.5 1.08-4.41 0-2.9-1.08-4.43-1.07-1.52-3.31-1.52-2.28 0-3.37 1.53-1.1 1.53-1.1 4.42t1.1 4.4q1.09 1.52 3.37 1.52m15.97-13.81.27 2.03q.84-1.61 1.99-2.53 1.16-.92 2.73-.92 1.24 0 2 .54l-.28 3.24q-.09.32-.26.45-.16.13-.44.13-.27 0-.78-.09-.52-.09-1.01-.09-.72 0-1.28.21t-1 .61q-.45.39-.79.95t-.64 1.28v11.06h-4.32v-17.96h2.54q.66 0 .92.24.27.24.35.85m13.57 4.16v8.05q.73.9 1.6 1.26.86.37 1.88.37.98 0 1.77-.37.78-.36 1.33-1.12.56-.75.85-1.89.3-1.15.3-2.71 0-1.57-.25-2.67-.26-1.09-.73-1.77-.47-.69-1.15-1-.67-.32-1.53-.32-1.34 0-2.29.57-.94.57-1.78 1.6m-.58-4.46.35 1.66q1.1-1.24 2.5-2.01t3.29-.77q1.47 0 2.69.61 1.21.62 2.1 1.78.88 1.16 1.36 2.87t.48 3.91q0 2.01-.54 3.73-.54 1.71-1.55 2.97-1 1.26-2.43 1.97t-3.19.71q-1.51 0-2.58-.46-1.06-.47-1.9-1.29v7.35h-4.33v-23.82h2.65q.84 0 1.1.79m39.97-5.76-1.17 2.23q-.21.36-.45.53t-.59.17q-.36 0-.79-.27-.43-.28-1.03-.61-.59-.33-1.39-.6-.79-.27-1.88-.27-.98 0-1.71.23-.74.24-1.24.66t-.74 1.01q-.25.58-.25 1.28 0 .89.5 1.49.5.59 1.32 1.01.83.42 1.88.76 1.05.33 2.15.71 1.1.37 2.15.87t1.87 1.26q.83.76 1.32 1.86.5 1.11.5 2.68 0 1.72-.58 3.21-.59 1.5-1.72 2.61t-2.75 1.75q-1.63.64-3.73.64-1.21 0-2.38-.24-1.17-.23-2.25-.67t-2.02-1.05q-.95-.61-1.68-1.37l1.38-2.25q.18-.25.46-.41.28-.17.59-.17.44 0 .95.36.5.36 1.2.79.7.44 1.64.8t2.25.36q2.01 0 3.11-.95 1.11-.96 1.11-2.74 0-1-.5-1.63t-1.32-1.06q-.83-.43-1.88-.73-1.05-.29-2.13-.64-1.09-.35-2.14-.84t-1.87-1.28-1.32-1.97-.5-2.91q0-1.39.55-2.7t1.6-2.33q1.05-1.01 2.59-1.62 1.54-.62 3.54-.62 2.24 0 4.13.7t3.22 1.96m11.81 4.69q2 0 3.63.65 1.64.65 2.8 1.84 1.17 1.19 1.8 2.9.63 1.72.63 3.84 0 2.13-.63 3.85-.63 1.71-1.8 2.92-1.16 1.21-2.8 1.85-1.63.65-3.63.65-2.01 0-3.66-.65-1.64-.64-2.81-1.85-1.16-1.21-1.8-2.92-.64-1.72-.64-3.85 0-2.12.64-3.84.64-1.71 1.8-2.9 1.17-1.19 2.81-1.84 1.65-.65 3.66-.65m0 15.18q2.24 0 3.32-1.51 1.07-1.5 1.07-4.41 0-2.9-1.07-4.43-1.08-1.52-3.32-1.52-2.27 0-3.37 1.53-1.09 1.53-1.09 4.42t1.09 4.4q1.1 1.52 3.37 1.52m17.75 3.06h-4.33v-14.7l-1.55-.25q-.51-.1-.82-.35-.3-.26-.3-.73v-1.77h2.67v-1.33q0-1.54.47-2.76.46-1.23 1.33-2.09.86-.85 2.11-1.31 1.24-.45 2.8-.45 1.24 0 2.31.33l-.09 2.17q-.02.24-.14.39t-.33.23q-.2.08-.46.11-.26.02-.56.02-.77 0-1.37.17-.61.16-1.03.58-.42.41-.64 1.08-.21.67-.21 1.67v1.19h4.67v3.08h-4.53zm16.45-4.64v-3.03q-1.88.09-3.15.33-1.28.23-2.05.6t-1.1.86q-.34.49-.34 1.07 0 1.13.68 1.62.67.49 1.76.49 1.33 0 2.3-.48t1.9-1.46m-9.14-9.43-.77-1.38q3.1-2.84 7.46-2.84 1.57 0 2.81.52 1.25.51 2.1 1.43.86.92 1.31 2.2.44 1.28.44 2.8v11.34h-1.96q-.61 0-.94-.18-.33-.19-.53-.75l-.38-1.29q-.68.61-1.33 1.07-.65.47-1.35.78-.7.32-1.5.48-.79.17-1.75.17-1.14 0-2.1-.31-.97-.3-1.67-.92-.7-.61-1.08-1.52-.39-.91-.39-2.12 0-.68.23-1.35.23-.68.74-1.29.52-.61 1.34-1.15.83-.55 2.02-.95 1.2-.4 2.8-.65 1.59-.26 3.64-.31v-1.05q0-1.8-.77-2.67t-2.23-.87q-1.05 0-1.74.25-.69.24-1.21.55-.53.31-.96.55-.43.25-.95.25-.46 0-.77-.24-.32-.24-.51-.55"/></svg>