<svg xmlns="http://www.w3.org/2000/svg" width="300" height="300" viewBox="0 0 300 300"><rect width="100%" height="100%" fill="#fff5e6"/><path fill="#333333" d="M71.45 140.755h3.08v18.8h-1.79q-.42 0-.7-.14-.28-.13-.54-.46l-9.81-12.53q.07.86.07 1.59v11.54h-3.08v-18.8h1.84q.22 0 .38.02t.28.08q.13.06.25.17.11.11.26.29l9.85 12.58q-.04-.45-.07-.89-.02-.44-.02-.82zm12.66 5.25q1.48 0 2.7.48 1.21.49 2.08 1.37.86.88 1.33 2.16.47 1.27.47 2.84 0 1.59-.47 2.86-.47 1.28-1.33 2.18-.87.89-2.08 1.37-1.22.49-2.7.49-1.49 0-2.72-.49-1.22-.48-2.08-1.37-.87-.9-1.34-2.18-.48-1.27-.48-2.86 0-1.57.48-2.84.47-1.28 1.34-2.16.86-.88 2.08-1.37 1.23-.48 2.72-.48m0 11.27q1.66 0 2.46-1.11.8-1.12.8-3.28t-.8-3.29-2.46-1.13q-1.69 0-2.5 1.14t-.81 3.28q0 2.15.81 3.27t2.5 1.12m11.87-10.25.19 1.51q.63-1.2 1.49-1.88.85-.69 2.02-.69.93 0 1.49.41l-.21 2.4q-.07.24-.19.33-.12.1-.33.1-.2 0-.58-.06-.38-.07-.75-.07-.53 0-.95.16-.41.15-.74.45-.34.29-.59.7-.25.42-.47.95v8.22h-3.21v-13.34h1.88q.49 0 .69.18.19.17.26.63m9.7 0 .19 1.51q.63-1.2 1.48-1.88.86-.69 2.03-.69.93 0 1.48.41l-.2 2.4q-.07.24-.19.33-.13.1-.33.1t-.58-.06q-.39-.07-.75-.07-.53 0-.95.16-.41.15-.75.45-.33.29-.58.7-.25.42-.48.95v8.22h-3.21v-13.34h1.89q.49 0 .69.18.19.17.26.63m16.35-.81h2.54l-5.29 13.34h-2.92l-5.29-13.34h2.65q.37 0 .61.17t.32.43l2.57 7.12q.21.63.37 1.23.15.59.27 1.19.13-.6.28-1.19.16-.6.38-1.23l2.63-7.12q.09-.26.32-.43.24-.17.56-.17m4.34 0h3.23v13.34h-3.23zm3.67-3.89q0 .42-.17.78-.17.37-.45.64t-.65.44q-.38.16-.81.16-.42 0-.79-.16-.37-.17-.64-.44t-.44-.64q-.16-.36-.16-.78t.16-.8q.17-.38.44-.65t.64-.44q.37-.16.79-.16.43 0 .81.16.37.17.65.44t.45.65.17.8m2.83-2.09h3.21v11.06h.6q.33 0 .52-.08.18-.08.38-.34l3.31-4.1q.21-.27.47-.42.25-.14.65-.14h2.94l-4.15 4.95q-.44.59-.96.9.27.2.49.46.21.26.41.56l4.44 6.47h-2.89q-.38 0-.65-.12-.28-.13-.46-.45l-3.41-5.06q-.18-.3-.37-.39-.2-.09-.59-.09h-.73v6.11h-3.21zm16.44 11.12h6.05q0-.63-.17-1.18-.18-.55-.53-.97-.35-.41-.89-.65-.54-.25-1.25-.25-1.39 0-2.19.8-.8.79-1.02 2.25m8.19 1.93h-8.26q.08 1.03.36 1.78.29.75.76 1.23.47.49 1.11.73t1.42.24 1.35-.18q.56-.18.99-.4.42-.22.74-.41.32-.18.62-.18.4 0 .59.3l.93 1.17q-.54.62-1.2 1.05-.66.42-1.38.67-.73.26-1.47.36-.75.11-1.45.11-1.39 0-2.59-.47-1.2-.46-2.08-1.36-.88-.91-1.39-2.24t-.51-3.09q0-1.36.44-2.56.45-1.21 1.27-2.1.83-.89 2.02-1.41t2.68-.52q1.26 0 2.33.41 1.06.4 1.83 1.17.77.78 1.2 1.9.44 1.13.44 2.57 0 .73-.16.98-.15.25-.59.25m5.94-6.48.22 1.05q.4-.4.85-.75.45-.34.95-.58t1.07-.38 1.25-.14q1.09 0 1.94.37.84.37 1.41 1.04.56.67.85 1.6.3.93.3 2.05v8.49h-3.21v-8.49q0-1.22-.56-1.89t-1.71-.67q-.83 0-1.56.38-.72.37-1.37 1.02v9.65h-3.22v-13.34h1.97q.62 0 .82.59m31.61 8.32q.29 0 .51.22l1.38 1.49q-1.15 1.42-2.82 2.17-1.67.76-4.01.76-2.09 0-3.76-.72-1.67-.71-2.85-1.99-1.19-1.27-1.82-3.04t-.63-3.86q0-2.12.68-3.88.67-1.76 1.9-3.04 1.23-1.27 2.93-1.98 1.71-.71 3.77-.71t3.65.68 2.71 1.77l-1.17 1.62q-.1.16-.27.28-.16.11-.44.11-.2 0-.41-.11t-.45-.27q-.25-.16-.57-.36-.33-.19-.76-.36-.43-.16-.99-.27-.57-.11-1.31-.11-1.26 0-2.31.45-1.04.45-1.8 1.3-.75.85-1.17 2.08-.41 1.23-.41 2.8 0 1.59.44 2.82.45 1.24 1.22 2.08.77.85 1.81 1.3 1.04.44 2.23.44.72 0 1.3-.07.58-.08 1.06-.25.49-.17.93-.44.43-.26.86-.65.13-.12.27-.19.15-.07.3-.07m7-14.89v7.41q.78-.73 1.71-1.18.94-.46 2.2-.46 1.09 0 1.94.37.84.37 1.41 1.04.56.67.85 1.6.3.93.3 2.05v8.49h-3.21v-8.49q0-1.22-.56-1.89t-1.71-.67q-.83 0-1.56.38-.72.37-1.37 1.02v9.65h-3.21v-19.32zm18.5 15.87v-2.24q-1.4.06-2.34.24-.95.17-1.53.44-.57.28-.81.64-.25.37-.25.79 0 .85.5 1.21.5.37 1.31.37.98 0 1.71-.36.72-.36 1.41-1.09m-6.79-7-.57-1.03q2.3-2.11 5.54-2.11 1.17 0 2.09.39.92.38 1.56 1.06.64.69.97 1.64.33.94.33 2.08v8.42h-1.46q-.45 0-.7-.14-.25-.13-.39-.55l-.29-.96q-.5.45-.98.8-.48.34-1 .58-.52.23-1.12.35-.59.13-1.3.13-.85 0-1.56-.23-.72-.23-1.24-.68-.52-.46-.8-1.13-.29-.68-.29-1.58 0-.5.17-1t.55-.96q.39-.45 1-.86.61-.4 1.5-.7t2.07-.49 2.71-.22v-.78q0-1.34-.58-1.99-.57-.64-1.65-.64-.78 0-1.29.18t-.9.41-.71.41-.71.18q-.34 0-.57-.17-.24-.18-.38-.41m13.04-2.89h3.22v13.34h-3.22zm3.66-3.89q0 .42-.16.78-.17.37-.45.64t-.66.44q-.38.16-.81.16-.41 0-.78-.16-.37-.17-.65-.44-.27-.27-.43-.64-.16-.36-.16-.78t.16-.8.43-.65q.28-.27.65-.44.37-.16.78-.16.43 0 .81.16.38.17.66.44t.45.65q.16.38.16.8m5.67 4.7.2 1.51q.62-1.2 1.48-1.88.86-.69 2.03-.69.92 0 1.48.41l-.21 2.4q-.06.24-.19.33-.12.1-.33.1-.19 0-.58-.06-.38-.07-.74-.07-.54 0-.95.16-.42.15-.75.45-.33.29-.59.7-.25.42-.47.95v8.22h-3.21v-13.34h1.88q.5 0 .69.18.2.17.26.63"/></svg>