<svg xmlns="http://www.w3.org/2000/svg" width="300" height="300" viewBox="0 0 300 300"><rect width="100%" height="100%" fill="#f0f0f0"/><path fill="#333333" d="m68.92 141.41-.77 1.46q-.14.24-.29.35-.16.11-.39.11-.24 0-.52-.18t-.67-.4-.92-.4q-.52-.17-1.23-.17-.65 0-1.13.15-.48.16-.81.43-.33.28-.49.66-.16.39-.16.85 0 .58.33.98.32.39.86.66.54.28 1.23.5t1.42.46q.72.25 1.41.58t1.23.83.87 1.22q.33.73.33 1.76 0 1.13-.38 2.11-.39.98-1.13 1.71t-1.81 1.15-2.45.42q-.8 0-1.57-.15-.77-.16-1.47-.44-.71-.29-1.33-.69-.62-.41-1.11-.9l.91-1.48q.12-.17.3-.27.18-.11.39-.11.29 0 .62.23.34.24.8.53.46.28 1.07.52.62.23 1.48.23 1.32 0 2.05-.62.72-.63.72-1.8 0-.66-.33-1.07-.32-.42-.87-.7-.54-.28-1.23-.47-.69-.2-1.4-.43t-1.4-.55-1.23-.84-.87-1.3q-.33-.77-.33-1.91 0-.91.36-1.77.37-.86 1.06-1.53t1.7-1.07 2.32-.4q1.47 0 2.72.46 1.24.46 2.11 1.29m6.48 15.24q-1.55 0-2.37-.86-.82-.87-.82-2.4v-6.59H71q-.23 0-.39-.15t-.16-.45v-1.13l1.9-.31.6-3.22q.05-.23.21-.35.17-.13.42-.13h1.47v3.71h3.15v2.03h-3.15v6.39q0 .55.27.86.27.32.74.32.27 0 .45-.07.17-.06.31-.13.13-.07.23-.13.11-.07.21-.07.13 0 .21.07.08.06.17.19l.85 1.38q-.62.52-1.43.78-.8.26-1.66.26m7.13-11.27.17 1.34q.55-1.06 1.31-1.66.76-.61 1.79-.61.82 0 1.31.36l-.18 2.13q-.06.2-.17.29t-.29.09q-.17 0-.51-.06t-.66-.06q-.47 0-.84.14t-.66.4q-.3.25-.52.62-.23.37-.42.84v7.27h-2.84v-11.8h1.67q.43 0 .61.16.17.15.23.55m12.3 8.04v-1.99q-1.23.06-2.07.22-.84.15-1.34.39-.51.24-.73.57-.22.32-.22.7 0 .74.45 1.07.44.32 1.15.32.87 0 1.51-.32.64-.31 1.25-.96m-6-6.2-.51-.9q2.04-1.87 4.9-1.87 1.04 0 1.85.34.82.34 1.38.94.57.61.86 1.45t.29 1.84v7.45h-1.29q-.4 0-.62-.12t-.34-.49l-.25-.85q-.45.4-.88.71-.42.3-.88.51t-.99.31q-.52.11-1.15.11-.75 0-1.38-.2-.64-.2-1.1-.6t-.71-1-.25-1.39q0-.45.15-.89.15-.45.49-.85t.88-.76 1.32-.62q.79-.26 1.84-.43t2.39-.2v-.69q0-1.19-.51-1.76-.5-.57-1.46-.57-.69 0-1.14.17-.45.16-.8.36-.34.2-.63.36-.28.16-.62.16-.3 0-.51-.15-.21-.16-.33-.37m13.9-2.03.2.93q.35-.36.75-.66.4-.31.84-.52t.95-.33q.5-.12 1.1-.12.97 0 1.72.32.74.33 1.24.92.5.6.76 1.42t.26 1.81v7.51h-2.84v-7.51q0-1.08-.49-1.67-.5-.6-1.51-.6-.74 0-1.38.34-.64.33-1.22.91v8.53h-2.84v-11.8h1.74q.55 0 .72.52m17.92 7.78v-5.29q-.48-.58-1.05-.82-.57-.25-1.23-.25-.64 0-1.16.25-.52.24-.89.73-.36.49-.56 1.24-.19.75-.19 1.77 0 1.04.16 1.76.17.72.48 1.17.31.46.76.66t1 .2q.88 0 1.51-.37.62-.37 1.17-1.05m0-13.59h2.84v17.09h-1.74q-.56 0-.71-.52l-.24-1.14q-.72.82-1.64 1.33-.93.5-2.16.5-.96 0-1.77-.4-.8-.4-1.38-1.17-.58-.76-.9-1.89t-.32-2.58q0-1.31.36-2.43.36-1.13 1.02-1.96.67-.83 1.6-1.29.93-.47 2.09-.47.99 0 1.69.31.71.31 1.26.84zm9.96 10.9q.53 0 .92-.14t.65-.4q.26-.25.39-.61.13-.35.13-.78 0-.87-.52-1.38-.53-.52-1.57-.52-1.05 0-1.57.52-.53.51-.53 1.38 0 .41.14.77.13.36.39.62t.65.4q.4.14.92.14m3.21 6.72q0-.35-.21-.56-.21-.22-.56-.34-.36-.12-.84-.18t-1.01-.09q-.54-.03-1.1-.05-.57-.02-1.11-.09-.48.26-.77.62t-.29.83q0 .31.15.58.16.27.5.46.34.2.88.31t1.32.11q.79 0 1.37-.12.57-.12.95-.34.37-.21.54-.5.18-.3.18-.64m-.57-11.93h3.39v1.06q0 .51-.6.62l-1.06.2q.24.61.24 1.33 0 .88-.35 1.58-.35.71-.97 1.2-.62.5-1.47.77t-1.82.27q-.35 0-.67-.03-.32-.04-.63-.1-.55.34-.55.75 0 .36.32.52.33.17.87.24t1.23.09q.69.01 1.42.07.72.06 1.41.2.69.15 1.23.46t.87.84q.33.54.33 1.38 0 .78-.39 1.51-.38.74-1.11 1.32-.73.57-1.8.92-1.06.35-2.42.35-1.33 0-2.32-.26t-1.65-.69q-.65-.43-.97-.99-.32-.57-.32-1.18 0-.82.5-1.38t1.37-.89q-.47-.24-.75-.65-.27-.4-.27-1.05 0-.27.09-.55.1-.28.29-.56.19-.27.48-.52t.68-.44q-.9-.49-1.41-1.29-.51-.81-.51-1.89 0-.87.35-1.58t.98-1.21q.62-.5 1.48-.76.86-.27 1.87-.27.76 0 1.42.16.67.15 1.22.45m11.42 8.35v-1.99q-1.23.06-2.07.22-.84.15-1.34.39-.51.24-.73.57-.22.32-.22.7 0 .74.45 1.07.44.32 1.15.32.88 0 1.51-.32.64-.31 1.25-.96m-6-6.2-.51-.9q2.04-1.87 4.9-1.87 1.04 0 1.85.34.82.34 1.38.94.57.61.86 1.45t.29 1.84v7.45h-1.28q-.41 0-.63-.12-.21-.12-.34-.49l-.25-.85q-.45.4-.88.71-.42.3-.88.51t-.99.31q-.52.11-1.15.11-.75 0-1.38-.2t-1.09-.6-.72-1q-.25-.6-.25-1.39 0-.45.15-.89.15-.45.49-.85t.88-.76 1.33-.62q.78-.26 1.83-.43t2.39-.2v-.69q0-1.19-.5-1.76-.51-.57-1.46-.57-.69 0-1.15.17-.45.16-.8.36-.34.2-.62.36-.29.16-.63.16-.3 0-.51-.15-.2-.16-.33-.37m13.9-2.03.2.93q.35-.36.75-.66.4-.31.84-.52t.95-.33 1.1-.12q.97 0 1.72.32.74.33 1.24.92.5.6.76 1.42t.26 1.81v7.51h-2.84v-7.51q0-1.08-.49-1.67-.5-.6-1.51-.6-.74 0-1.38.34-.64.33-1.22.91v8.53h-2.84v-11.8h1.74q.55 0 .72.52m18.91-.52h2.24l-4.68 11.8h-2.58l-4.68-11.8h2.35q.32 0 .53.15.22.15.29.38l2.27 6.3q.19.55.33 1.08.13.53.24 1.06.11-.53.25-1.06t.33-1.08l2.33-6.3q.08-.23.28-.38.21-.15.5-.15m3.84 0h2.85v11.8h-2.85zm3.24-3.44q0 .37-.15.69t-.39.57q-.25.24-.58.38-.34.14-.72.14-.37 0-.69-.14-.33-.14-.57-.38-.24-.25-.39-.57-.14-.32-.14-.69 0-.38.14-.71.15-.33.39-.58.24-.24.57-.38.32-.14.69-.14.38 0 .72.14.33.14.58.38.24.25.39.58t.15.71m2.51-1.85h2.84v9.79h.53q.29 0 .45-.08.17-.07.34-.3l2.93-3.62q.19-.25.41-.37.23-.13.58-.13h2.6l-3.67 4.38q-.39.52-.85.8.24.17.43.4t.37.49l3.93 5.73h-2.56q-.34 0-.58-.11t-.4-.4l-3.02-4.47q-.16-.26-.33-.34-.17-.09-.52-.09h-.64v5.41h-2.84zm27.96 2.03-.77 1.46q-.14.24-.3.35-.15.11-.38.11-.24 0-.53-.18-.28-.18-.67-.4t-.91-.4q-.53-.17-1.24-.17-.64 0-1.13.15-.48.16-.81.43-.33.28-.49.66-.16.39-.16.85 0 .58.33.98.33.39.87.66.54.28 1.23.5t1.41.46q.73.25 1.42.58t1.23.83.87 1.22q.32.73.32 1.76 0 1.13-.38 2.11-.39.98-1.13 1.71t-1.81 1.15-2.45.42q-.79 0-1.56-.15-.77-.16-1.48-.44-.71-.29-1.33-.69-.62-.41-1.1-.9l.91-1.48q.11-.17.3-.27.18-.11.39-.11.28 0 .62.23.33.24.79.53.46.28 1.08.52.61.23 1.47.23 1.33 0 2.05-.62.73-.63.73-1.8 0-.66-.33-1.07-.33-.42-.87-.7t-1.23-.47q-.69-.2-1.4-.43-.72-.23-1.41-.55t-1.23-.84-.87-1.3q-.32-.77-.32-1.91 0-.91.36-1.77t1.05-1.53 1.7-1.07 2.33-.4q1.47 0 2.71.46t2.12 1.29m7.76 3.08q1.31 0 2.38.42 1.08.43 1.84 1.21.77.78 1.18 1.91.42 1.13.42 2.52 0 1.4-.42 2.53-.41 1.12-1.18 1.92-.76.79-1.84 1.22-1.07.42-2.38.42-1.32 0-2.41-.42-1.08-.43-1.84-1.22-.77-.8-1.19-1.92-.42-1.13-.42-2.53 0-1.39.42-2.52t1.19-1.91q.76-.78 1.84-1.21 1.09-.42 2.41-.42m0 9.97q1.47 0 2.18-.99.7-.99.7-2.9t-.7-2.91q-.71-1-2.18-1-1.5 0-2.22 1.01-.71 1-.71 2.9t.71 2.89q.72 1 2.22 1m11.66 2.01h-2.84v-9.66l-1.02-.16q-.34-.07-.54-.24-.2-.16-.2-.47v-1.17h1.76v-.87q0-1.01.3-1.82.31-.8.88-1.36.57-.57 1.38-.87.82-.3 1.84-.3.82 0 1.52.22l-.06 1.43q-.01.16-.09.26-.08.09-.21.15-.13.05-.31.07-.17.01-.36.01-.51 0-.91.11-.39.11-.67.38t-.42.71q-.14.45-.14 1.1v.78h3.07v2.03h-2.98zm10.81-3.05v-1.99q-1.23.06-2.07.22-.84.15-1.35.39-.5.24-.72.57-.22.32-.22.7 0 .74.44 1.07.45.32 1.16.32.87 0 1.51-.32.64-.31 1.25-.96m-6-6.2-.51-.9q2.04-1.87 4.9-1.87 1.03 0 1.85.34t1.38.94q.56.61.86 1.45.29.84.29 1.84v7.45h-1.29q-.4 0-.62-.12t-.34-.49l-.26-.85q-.44.4-.87.71-.43.3-.89.51t-.98.31q-.52.11-1.15.11-.75 0-1.38-.2-.64-.2-1.1-.6t-.71-1-.25-1.39q0-.45.15-.89.15-.45.49-.85.33-.4.87-.76.55-.36 1.33-.62.79-.26 1.84-.43 1.04-.17 2.39-.2v-.69q0-1.19-.51-1.76-.5-.57-1.46-.57-.69 0-1.14.17-.46.16-.8.36l-.63.36q-.28.16-.62.16-.3 0-.51-.15-.21-.16-.33-.37"/></svg>