<svg xmlns="http://www.w3.org/2000/svg" width="300" height="300" viewBox="0 0 300 300"><rect width="100%" height="100%" fill="#f0f0f0"/><path fill="#333333" d="m72.185 141.09-1.04 1.96q-.18.33-.39.48-.21.14-.52.14-.33 0-.71-.24t-.9-.53q-.53-.3-1.23-.54-.71-.24-1.67-.24-.87 0-1.52.21t-1.09.58q-.44.38-.66.9-.22.51-.22 1.13 0 .8.44 1.32.44.53 1.17.9t1.66.67q.93.29 1.91.63.97.33 1.9.77t1.66 1.12q.73.67 1.17 1.65.45.97.45 2.37 0 1.52-.52 2.84-.52 1.33-1.52 2.31-1 .99-2.44 1.55-1.45.57-3.31.57-1.07 0-2.1-.21-1.04-.21-2-.6-.95-.39-1.79-.93-.83-.54-1.48-1.21l1.22-2q.16-.21.4-.36.25-.15.53-.15.39 0 .84.32t1.07.71q.62.38 1.45.7t1.99.32q1.78 0 2.76-.85.97-.84.97-2.42 0-.89-.44-1.44-.44-.56-1.17-.94t-1.66-.65q-.93-.26-1.89-.57t-1.89-.74q-.93-.44-1.66-1.13-.73-.7-1.17-1.75-.44-1.04-.44-2.58 0-1.22.49-2.39.49-1.16 1.42-2.06t2.29-1.44q1.37-.54 3.13-.54 1.99 0 3.66.62t2.85 1.74m14.74 4.4h3.03l-6.31 15.9h-3.48l-6.3-15.9h3.16q.43 0 .72.2t.38.51l3.07 8.49q.25.75.43 1.46.19.71.33 1.43.15-.72.34-1.43.18-.71.45-1.46l3.13-8.49q.11-.31.39-.51t.66-.2m8.08 6.12h7.22q0-.74-.21-1.4t-.63-1.16q-.41-.49-1.06-.78-.64-.29-1.49-.29-1.66 0-2.61.95-.96.94-1.22 2.68m9.76 2.31h-9.84q.09 1.22.43 2.11.35.9.9 1.48.56.58 1.33.87.77.28 1.7.28t1.6-.21q.67-.22 1.18-.49.5-.26.88-.48.38-.21.74-.21.48 0 .71.35l1.1 1.4q-.63.74-1.42 1.25-.79.5-1.65.8-.87.3-1.76.43-.89.12-1.72.12-1.66 0-3.09-.55t-2.48-1.63q-1.05-1.07-1.66-2.66-.6-1.59-.6-3.68 0-1.63.52-3.06.53-1.44 1.52-2.5.98-1.06 2.4-1.68t3.2-.62q1.5 0 2.77.48t2.19 1.4q.91.92 1.43 2.27.52 1.34.52 3.06 0 .86-.18 1.17-.19.3-.72.3m10.81-8.68q1.76 0 3.21.57 1.45.58 2.48 1.63t1.59 2.57.56 3.4q0 1.89-.56 3.41t-1.59 2.59-2.48 1.64-3.21.57q-1.79 0-3.24-.57-1.46-.57-2.49-1.64t-1.6-2.59q-.56-1.52-.56-3.41 0-1.88.56-3.4.57-1.52 1.6-2.57t2.49-1.63q1.45-.57 3.24-.57m0 13.44q1.98 0 2.93-1.34.96-1.33.96-3.9t-.96-3.92q-.95-1.35-2.93-1.35-2.02 0-2.99 1.35-.97 1.36-.97 3.92t.97 3.9 2.99 1.34m14.15-12.23.23 1.8q.74-1.43 1.77-2.24 1.02-.82 2.42-.82 1.1 0 1.76.48l-.25 2.87q-.07.28-.22.4-.15.11-.4.11-.23 0-.68-.08-.46-.07-.9-.07-.63 0-1.13.18-.49.19-.89.54-.39.35-.7.84-.3.5-.56 1.13v9.8h-3.83v-15.9h2.25q.59 0 .82.21t.31.75m12.01 14.94h-3.83v-15.9h2.34q.75 0 .98.69l.25 1.18q.42-.46.87-.85.46-.39.98-.67t1.12-.44q.59-.16 1.31-.16 1.5 0 2.47.81.97.82 1.45 2.16.37-.79.93-1.35.55-.57 1.22-.92.67-.36 1.42-.53t1.51-.17q1.32 0 2.34.4t1.72 1.18 1.06 1.89q.37 1.12.37 2.56v10.12h-3.83v-10.12q0-1.52-.67-2.29-.66-.77-1.95-.77-.59 0-1.09.21-.51.2-.89.58t-.59.95q-.22.57-.22 1.32v10.12h-3.84v-10.12q0-1.6-.65-2.33-.64-.73-1.88-.73-.84 0-1.56.42-.72.41-1.34 1.12zm45.66-5.29q.34 0 .61.27l1.64 1.78q-1.36 1.69-3.35 2.59-2 .9-4.79.9-2.49 0-4.48-.85-2-.86-3.41-2.38t-2.16-3.62q-.75-2.11-.75-4.61 0-2.52.81-4.62.8-2.1 2.27-3.62 1.46-1.52 3.49-2.37 2.03-.84 4.5-.84 2.45 0 4.34.8 1.9.81 3.24 2.11l-1.4 1.94q-.12.19-.32.33-.19.14-.53.14-.23 0-.48-.14-.25-.13-.54-.32-.3-.2-.69-.43-.38-.23-.89-.42-.52-.2-1.19-.33t-1.56-.13q-1.5 0-2.75.53-1.25.54-2.15 1.55-.9 1.02-1.39 2.48-.5 1.47-.5 3.34 0 1.89.54 3.37.53 1.47 1.45 2.48.91 1 2.15 1.54 1.24.53 2.67.53.85 0 1.54-.09t1.27-.29q.58-.21 1.1-.52.52-.32 1.03-.79.16-.14.33-.22.17-.09.35-.09m8.34-17.74v8.83q.93-.87 2.05-1.41 1.11-.54 2.62-.54 1.3 0 2.31.44t1.68 1.24 1.02 1.91.35 2.44v10.12h-3.83v-10.12q0-1.46-.66-2.26-.67-.8-2.03-.8-1 0-1.86.45-.87.45-1.65 1.23v11.5h-3.83v-23.03zm22.06 18.92v-2.68q-1.66.08-2.79.29t-1.81.53q-.69.33-.98.76-.3.44-.3.95 0 1.01.6 1.44t1.56.43q1.18 0 2.04-.42.86-.43 1.68-1.3m-8.09-8.35-.68-1.23q2.74-2.51 6.6-2.51 1.39 0 2.49.46 1.11.46 1.86 1.27.76.81 1.16 1.95.39 1.13.39 2.48v10.04h-1.73q-.54 0-.84-.16-.29-.17-.46-.66l-.34-1.15q-.61.54-1.18.95-.58.42-1.2.69-.62.28-1.32.43-.71.15-1.56.15-1.01 0-1.86-.27t-1.47-.82q-.62-.54-.96-1.35-.34-.8-.34-1.87 0-.61.2-1.2.2-.6.66-1.14.45-.54 1.18-1.02.73-.49 1.79-.84 1.06-.36 2.48-.58 1.41-.23 3.22-.27v-.93q0-1.6-.68-2.37t-1.97-.77q-.93 0-1.54.22-.62.22-1.08.49l-.85.49q-.38.22-.84.22-.4 0-.68-.21t-.45-.49m15.54-3.44h3.85v15.9h-3.85zm4.38-4.64q0 .5-.21.93-.2.44-.53.76-.33.33-.78.52t-.96.19q-.5 0-.94-.19t-.77-.52q-.32-.32-.52-.76-.19-.43-.19-.93 0-.51.19-.96.2-.45.52-.77.33-.33.77-.52.44-.2.94-.2.51 0 .96.2.45.19.78.52.33.32.53.77.21.45.21.96m6.75 5.6.24 1.8q.74-1.43 1.76-2.24 1.03-.82 2.42-.82 1.1 0 1.77.48l-.25 2.87q-.08.28-.22.4-.15.11-.4.11-.23 0-.69-.08-.46-.07-.89-.07-.64 0-1.13.18-.5.19-.89.54-.4.35-.7.84-.3.5-.57 1.13v9.8h-3.83v-15.9h2.25q.59 0 .82.21.24.21.31.75"/></svg>