<svg xmlns="http://www.w3.org/2000/svg" width="100" height="100" viewBox="0 0 100 100"><rect width="100%" height="100%" fill="#f0f0f0"/><path fill="#333333" d="M33.865 55.125q.29 0 .51.22l1.38 1.49q-1.15 1.42-2.82 2.17-1.67.76-4.01.76-2.09 0-3.76-.72-1.67-.71-2.86-1.99-1.18-1.27-1.81-3.04t-.63-3.86q0-2.12.68-3.88.67-1.76 1.9-3.04 1.23-1.27 2.93-1.98 1.71-.71 3.77-.71t3.65.68 2.71 1.77l-1.17 1.62q-.1.16-.27.28-.16.11-.45.11-.19 0-.4-.11t-.45-.27q-.25-.16-.58-.36-.32-.19-.75-.36-.43-.16-.99-.27-.57-.11-1.31-.11-1.26 0-2.31.45-1.04.45-1.8 1.3-.75.85-1.17 2.08-.41 1.23-.41 2.8 0 1.59.44 2.82.45 1.24 1.22 2.08.77.85 1.81 1.3 1.04.44 2.23.44.72 0 1.3-.07.57-.08 1.06-.25t.93-.44q.43-.26.86-.65.13-.12.27-.19.15-.07.3-.07m7-14.89v7.41q.78-.73 1.71-1.18.94-.46 2.2-.46 1.09 0 1.94.37.84.37 1.41 1.04.56.67.85 1.6.3.93.3 2.05v8.49h-3.21v-8.49q0-1.22-.56-1.89t-1.71-.67q-.83 0-1.56.38-.72.37-1.37 1.02v9.65h-3.22v-19.32zm18.5 15.87v-2.24q-1.4.06-2.34.24-.95.17-1.53.44-.57.28-.82.64-.24.37-.24.79 0 .85.5 1.21.5.37 1.31.37.98 0 1.7-.36.73-.36 1.42-1.09m-6.79-7-.57-1.03q2.3-2.11 5.54-2.11 1.17 0 2.09.39.92.38 1.56 1.06.64.69.97 1.64.33.94.33 2.08v8.42h-1.46q-.45 0-.7-.14-.25-.13-.39-.55l-.29-.96q-.5.45-.98.8-.49.34-1 .58-.52.23-1.12.35-.59.13-1.3.13-.85 0-1.56-.23-.72-.23-1.24-.68-.52-.46-.8-1.13-.29-.68-.29-1.58 0-.5.17-1t.55-.96q.38-.45 1-.86.61-.4 1.5-.7t2.07-.49 2.71-.22v-.78q0-1.34-.58-1.99-.57-.64-1.65-.64-.78 0-1.29.18t-.9.41-.71.41-.71.18q-.34 0-.57-.17-.24-.18-.38-.41m13.04-2.89h3.22v13.34h-3.22zm3.66-3.89q0 .42-.16.78-.17.37-.45.64t-.66.44q-.38.16-.81.16-.41 0-.78-.16-.37-.17-.65-.44-.27-.27-.43-.64-.16-.36-.16-.78t.16-.8.43-.65q.28-.27.65-.44.37-.16.78-.16.43 0 .81.16.38.17.66.44t.45.65q.16.38.16.8m5.67 4.7.2 1.51q.62-1.2 1.48-1.88.86-.69 2.03-.69.92 0 1.48.41l-.21 2.4q-.06.24-.19.33-.12.1-.33.1-.19 0-.58-.06-.38-.07-.74-.07-.54 0-.95.16-.42.15-.75.45-.33.29-.59.7-.25.42-.47.95v8.22h-3.21v-13.34h1.88q.5 0 .69.18.2.17.26.63"/></svg>