<svg xmlns="http://www.w3.org/2000/svg" width="100" height="100" viewBox="0 0 100 100"><rect width="100%" height="100%" fill="#f0f0f0"/><path fill="#333333" d="M37.795 50.16q0 2.15-.71 3.94-.72 1.8-2.01 3.09-1.3 1.3-3.12 2.01-1.83.72-4.05.72h-7.44V40.4h7.44q2.22 0 4.05.72 1.82.72 3.12 2.01 1.29 1.29 2.01 3.09.71 1.79.71 3.94m-3.72 0q0-1.61-.43-2.88-.42-1.28-1.23-2.16-.8-.89-1.94-1.36t-2.57-.47h-3.8v13.74h3.8q1.43 0 2.57-.47t1.94-1.36q.81-.88 1.23-2.16.43-1.27.43-2.88m9.03 1.24h6.29q0-.65-.18-1.22-.19-.57-.55-1.01-.36-.43-.92-.68t-1.31-.25q-1.44 0-2.27.83-.83.82-1.06 2.33m8.5 2.01h-8.57q.08 1.07.38 1.85.3.77.78 1.28.49.5 1.16.75.66.25 1.47.25t1.4-.18q.59-.19 1.03-.42t.77-.42.64-.19q.42 0 .62.31l.96 1.21q-.56.65-1.24 1.09-.69.44-1.44.7-.75.27-1.53.37-.77.11-1.5.11-1.45 0-2.69-.48t-2.16-1.41q-.92-.94-1.44-2.33-.53-1.38-.53-3.2 0-1.42.46-2.67t1.32-2.17q.85-.93 2.09-1.47 1.23-.54 2.79-.54 1.3 0 2.41.42t1.91 1.22q.79.81 1.24 1.97.46 1.17.46 2.67 0 .76-.17 1.02-.16.26-.62.26m12.49-5.84-.76 1.2q-.13.21-.28.3t-.38.09q-.24 0-.52-.13-.27-.14-.64-.31-.36-.17-.83-.3-.46-.14-1.1-.14-.98 0-1.54.42t-.56 1.09q0 .45.29.75.29.31.77.54.47.23 1.08.41t1.24.4q.63.21 1.23.49.61.28 1.09.7.48.43.77 1.02.29.6.29 1.43 0 1-.36 1.85-.36.84-1.06 1.45-.7.62-1.73.96-1.04.35-2.39.35-.71 0-1.39-.13t-1.31-.36-1.16-.54q-.54-.31-.94-.67l.77-1.27q.15-.23.35-.35.2-.13.51-.13t.59.18q.28.17.64.38.36.2.86.38.49.17 1.25.17.59 0 1.02-.14.42-.14.7-.37.27-.23.4-.54.13-.3.13-.62 0-.49-.29-.8t-.77-.54-1.09-.41q-.62-.18-1.26-.4t-1.25-.51q-.62-.29-1.1-.73-.48-.45-.77-1.1-.29-.64-.29-1.56 0-.85.34-1.62t.99-1.34q.66-.58 1.64-.92.98-.35 2.26-.35 1.43 0 2.6.48 1.18.47 1.96 1.24m2.66-7.71h3.33v11.49h.63q.33 0 .53-.09.19-.09.4-.36l3.44-4.25q.22-.28.48-.43t.68-.15h3.05l-4.3 5.14q-.46.61-1 .93.28.21.5.48.23.27.43.58l4.61 6.72h-3.01q-.39 0-.67-.13t-.47-.46l-3.54-5.26q-.19-.31-.39-.4t-.61-.09h-.76v6.34h-3.33z"/></svg>