<svg xmlns="http://www.w3.org/2000/svg" width="100" height="100" viewBox="0 0 100 100"><rect width="100%" height="100%" fill="#f0f0f0"/><path fill="#333333" d="m35.14 40.975-1.04 1.96q-.19.33-.39.48-.21.14-.52.14-.33 0-.71-.24t-.91-.53q-.52-.3-1.23-.54-.7-.24-1.66-.24-.87 0-1.52.21t-1.1.58q-.44.38-.65.9-.22.51-.22 1.13 0 .8.44 1.32.44.53 1.17.9t1.66.67q.93.29 1.91.63.97.33 1.9.77t1.66 1.12q.73.67 1.17 1.65.44.97.44 2.37 0 1.52-.52 2.84-.52 1.33-1.52 2.31-1 .99-2.44 1.55-1.44.57-3.3.57-1.07 0-2.11-.21t-1.99-.6-1.79-.93-1.49-1.21l1.23-2q.15-.21.4-.36t.53-.15q.39 0 .83.32.45.32 1.07.71.62.38 1.45.7t2 .32q1.78 0 2.75-.85.98-.84.98-2.42 0-.89-.44-1.44-.44-.56-1.17-.94t-1.66-.65q-.93-.26-1.89-.57t-1.89-.74q-.93-.44-1.66-1.13-.73-.7-1.17-1.75-.44-1.04-.44-2.58 0-1.22.49-2.39.48-1.16 1.41-2.06t2.3-1.44q1.36-.54 3.13-.54 1.98 0 3.66.62 1.67.62 2.85 1.74m10.46 4.15q1.77 0 3.22.57 1.45.58 2.48 1.63t1.59 2.57q.55 1.52.55 3.4 0 1.89-.55 3.41-.56 1.52-1.59 2.59t-2.48 1.64-3.22.57q-1.78 0-3.24-.57-1.45-.57-2.49-1.64-1.03-1.07-1.59-2.59-.57-1.52-.57-3.41 0-1.88.57-3.4.56-1.52 1.59-2.57 1.04-1.05 2.49-1.63 1.46-.57 3.24-.57m0 13.44q1.99 0 2.94-1.34.95-1.33.95-3.9t-.95-3.92-2.94-1.35q-2.01 0-2.98 1.35-.97 1.36-.97 3.92t.97 3.9 2.98 1.34m15.72 2.71h-3.83v-13.02l-1.38-.22q-.45-.09-.72-.31-.27-.23-.27-.65v-1.56h2.37v-1.18q0-1.37.41-2.45.41-1.09 1.18-1.84.77-.76 1.87-1.17 1.1-.4 2.48-.4 1.1 0 2.04.29l-.07 1.93q-.02.21-.13.34-.11.14-.29.21-.17.07-.41.09-.23.02-.49.02-.68 0-1.22.15-.53.15-.91.51-.37.37-.56.96-.2.6-.2 1.48v1.06h4.14v2.72h-4.01zm14.57-4.11v-2.68q-1.66.08-2.79.29t-1.81.53q-.69.33-.98.76-.3.44-.3.95 0 1.01.6 1.44t1.56.43q1.18 0 2.04-.42.86-.43 1.68-1.3m-8.09-8.35-.68-1.23q2.74-2.51 6.6-2.51 1.39 0 2.49.46t1.86 1.27 1.16 1.95q.39 1.13.39 2.48v10.04h-1.73q-.54 0-.84-.16-.29-.17-.46-.66l-.34-1.15q-.61.54-1.18.95-.58.42-1.2.69-.62.28-1.32.43-.71.15-1.56.15-1.01 0-1.86-.27t-1.47-.82q-.62-.54-.96-1.35-.34-.8-.34-1.87 0-.61.2-1.2.2-.6.66-1.14.45-.54 1.18-1.02.73-.49 1.79-.84 1.06-.36 2.47-.58 1.42-.23 3.23-.27v-.93q0-1.6-.68-2.37-.69-.77-1.97-.77-.93 0-1.54.22-.62.22-1.08.49l-.85.49q-.38.22-.84.22-.4 0-.68-.21t-.45-.49"/></svg>