<svg xmlns="http://www.w3.org/2000/svg" width="200" height="250" viewBox="0 0 200 250"><rect width="100%" height="100%" fill="#f0f0f0"/><path fill="#333333" d="M45.05 131.83h3.53q.98 0 1.64-.23.66-.24 1.06-.63t.57-.91q.18-.52.18-1.1 0-.61-.2-1.1-.19-.49-.61-.83-.41-.35-1.07-.53t-1.58-.18h-3.52zm2.97-13.36h-2.97v5.43h2.78q1.79 0 2.71-.65t.92-2.07q0-1.47-.84-2.09-.83-.62-2.6-.62m-6.47-2.71h6.47q1.85 0 3.16.35 1.32.35 2.16 1 .83.65 1.22 1.58.39.92.39 2.08 0 .66-.19 1.26-.2.61-.61 1.14-.41.52-1.04.95t-1.5.73q3.88.87 3.88 4.18 0 1.2-.46 2.21-.45 1.02-1.32 1.75-.88.74-2.15 1.15-1.27.42-2.91.42h-7.1zm19.15 10.6h6.06q0-.63-.18-1.18-.17-.55-.52-.97-.36-.41-.9-.65-.53-.25-1.25-.25-1.39 0-2.19.8-.8.79-1.02 2.25m8.19 1.93h-8.26q.08 1.03.37 1.78.28.75.75 1.23.47.49 1.11.73.65.24 1.43.24t1.34-.18q.57-.18.99-.4t.74-.41q.32-.18.62-.18.4 0 .6.3l.92 1.17q-.53.62-1.2 1.05-.66.42-1.38.67-.72.26-1.47.36-.75.11-1.45.11-1.39 0-2.59-.47-1.19-.46-2.08-1.36-.88-.91-1.39-2.24-.5-1.33-.5-3.09 0-1.36.44-2.56.44-1.21 1.27-2.1.82-.89 2.01-1.41t2.69-.52q1.26 0 2.32.41 1.07.4 1.84 1.17.76.78 1.2 1.9.43 1.13.43 2.57 0 .73-.15.98-.16.25-.6.25m11.53 2.32v-5.98q-.55-.67-1.19-.94t-1.38-.27q-.73 0-1.32.27-.58.27-1 .83-.41.55-.63 1.4-.23.85-.23 2.01 0 1.17.19 1.98t.54 1.33q.35.51.86.74t1.13.23q1 0 1.7-.42.71-.42 1.33-1.18m0-15.37h3.21v19.32h-1.96q-.64 0-.81-.59l-.27-1.28q-.81.92-1.85 1.49-1.05.58-2.44.58-1.09 0-2-.46t-1.57-1.32-1.01-2.14q-.36-1.27-.36-2.91 0-1.48.4-2.76.41-1.27 1.16-2.21.75-.93 1.81-1.46 1.05-.53 2.36-.53 1.12 0 1.91.36.8.35 1.42.94zm16.71 9.47h2.18q.99 0 1.72-.25.74-.25 1.21-.68.48-.44.71-1.04t.23-1.31q0-1.43-.94-2.2-.94-.76-2.88-.76h-2.23zm6.47 2.91 4.71 6.94h-3.16q-.9 0-1.3-.7l-3.96-6.02q-.22-.34-.48-.48-.27-.15-.79-.15h-1.49v7.35h-3.5v-18.8h5.73q1.91 0 3.28.4 1.38.39 2.25 1.11.88.71 1.3 1.71.41.99.41 2.19 0 .95-.28 1.79-.28.85-.8 1.54-.53.69-1.3 1.21-.78.52-1.76.82.33.19.62.46.29.26.52.63m12.14-6.61q1.48 0 2.7.48 1.21.49 2.08 1.37.86.88 1.33 2.16.47 1.27.47 2.84 0 1.59-.47 2.86-.47 1.28-1.33 2.18-.87.89-2.08 1.37-1.22.49-2.7.49-1.49 0-2.72-.49-1.22-.48-2.08-1.37-.87-.9-1.34-2.18-.48-1.27-.48-2.86 0-1.57.48-2.84.47-1.28 1.34-2.16.86-.88 2.08-1.37 1.23-.48 2.72-.48m0 11.27q1.67 0 2.46-1.11.8-1.12.8-3.28t-.8-3.29q-.79-1.13-2.46-1.13-1.69 0-2.5 1.14t-.81 3.28q0 2.15.81 3.27t2.5 1.12m14.94-11.27q1.48 0 2.7.48 1.21.49 2.08 1.37.86.88 1.33 2.16.47 1.27.47 2.84 0 1.59-.47 2.86-.47 1.28-1.33 2.18-.87.89-2.08 1.37-1.22.49-2.7.49-1.5 0-2.72-.49-1.22-.48-2.08-1.37-.87-.9-1.34-2.18-.48-1.27-.48-2.86 0-1.57.48-2.84.47-1.28 1.34-2.16.86-.88 2.08-1.37 1.22-.48 2.72-.48m0 11.27q1.66 0 2.46-1.11.8-1.12.8-3.28t-.8-3.29-2.46-1.13q-1.69 0-2.5 1.14-.82 1.14-.82 3.28 0 2.15.82 3.27.81 1.12 2.5 1.12m12.24 2.28h-3.21v-13.34h1.97q.62 0 .82.59l.2.98q.35-.39.74-.71.38-.33.82-.56.43-.23.93-.37t1.1-.14q1.26 0 2.08.69.81.68 1.21 1.81.31-.66.78-1.14.47-.47 1.03-.77t1.19-.44q.63-.15 1.26-.15 1.11 0 1.97.34t1.44.99q.59.65.89 1.59.31.93.31 2.14v8.49h-3.21v-8.49q0-1.27-.56-1.92-.56-.64-1.64-.64-.5 0-.92.17t-.74.49q-.32.31-.5.8-.18.48-.18 1.1v8.49h-3.23v-8.49q0-1.34-.53-1.95-.54-.61-1.58-.61-.71 0-1.31.34-.61.35-1.13.95z"/></svg>