<svg xmlns="http://www.w3.org/2000/svg" width="200" height="250" viewBox="0 0 200 250"><rect width="100%" height="100%" fill="#f0f0f0"/><path fill="#333333" d="M54.045 123.3q0 1.67-.55 3.06-.56 1.4-1.57 2.41-1 1.01-2.42 1.56-1.42.56-3.15.56h-5.79v-15.18h5.79q1.73 0 3.15.56t2.42 1.56q1.01 1.01 1.57 2.4.55 1.4.55 3.07m-2.89 0q0-1.25-.33-2.24-.34-1-.96-1.68-.62-.69-1.51-1.06t-2-.37h-2.95v10.69h2.95q1.11 0 2-.36.89-.37 1.51-1.06t.96-1.68q.33-.99.33-2.24m5.06-3.18h2.6v10.77h-2.6zm2.96-3.14q0 .33-.14.63-.13.29-.36.51t-.53.35q-.31.13-.65.13t-.64-.13-.52-.35-.35-.51q-.13-.3-.13-.63 0-.35.13-.65.13-.31.35-.53t.52-.35.64-.13.65.13q.3.13.53.35t.36.53q.14.3.14.65m4.53 3.61.18.85q.33-.33.69-.6.36-.28.77-.48.4-.19.86-.3.47-.11 1.01-.11.88 0 1.57.3.68.3 1.13.84.46.54.7 1.29.23.75.23 1.65v6.86h-2.59v-6.86q0-.98-.45-1.52-.45-.55-1.38-.55-.67 0-1.26.31-.58.3-1.11.83v7.79h-2.59v-10.77h1.58q.51 0 .66.47m9.69-.47h2.6v10.77h-2.6zm2.96-3.14q0 .33-.14.63-.14.29-.36.51-.23.22-.53.35-.31.13-.65.13t-.64-.13-.52-.35-.35-.51q-.13-.3-.13-.63 0-.35.13-.65.13-.31.35-.53t.52-.35.64-.13.65.13q.3.13.53.35.22.22.36.53.14.3.14.65m4.53 3.61.18.85q.33-.33.69-.6.36-.28.76-.48.41-.19.87-.3t1.01-.11q.88 0 1.56.3.69.3 1.14.84.46.54.7 1.29.23.75.23 1.65v6.86h-2.59v-6.86q0-.98-.45-1.52-.45-.55-1.38-.55-.67 0-1.26.31-.59.3-1.11.83v7.79h-2.59v-10.77h1.58q.5 0 .66.47m13.54 4.65q.48 0 .84-.13.35-.13.59-.36t.36-.56q.12-.32.12-.71 0-.8-.48-1.27t-1.43-.47q-.96 0-1.44.47-.47.47-.47 1.27 0 .37.12.7t.35.56q.24.24.6.37t.84.13m2.93 6.13q0-.31-.19-.51t-.52-.31q-.32-.11-.76-.16-.43-.06-.92-.08-.49-.03-1.01-.05t-1.01-.08q-.43.24-.7.56-.27.33-.27.76 0 .28.14.53t.45.42q.31.18.81.28.49.1 1.2.1.73 0 1.25-.11.53-.11.87-.3.34-.2.5-.46.16-.27.16-.59m-.52-10.89h3.1v.97q0 .46-.56.57l-.96.18q.22.55.22 1.21 0 .8-.32 1.45-.32.64-.89 1.09-.57.46-1.34.7-.77.25-1.66.25-.32 0-.61-.03-.3-.03-.58-.09-.5.31-.5.69 0 .32.3.47.29.16.79.22.49.06 1.12.08.63.01 1.29.07.66.05 1.29.18t1.13.42q.49.28.79.77t.3 1.25q0 .72-.35 1.39t-1.02 1.2q-.67.52-1.64.84t-2.21.32q-1.22 0-2.12-.24-.9-.23-1.5-.63-.6-.39-.89-.9-.3-.52-.3-1.07 0-.76.46-1.27t1.25-.81q-.43-.22-.68-.59t-.25-.97q0-.24.09-.5.09-.25.26-.51.17-.25.44-.47.26-.23.62-.41-.82-.44-1.29-1.17-.47-.74-.47-1.73 0-.79.32-1.44t.9-1.1q.57-.46 1.35-.7t1.71-.24q.69 0 1.3.14t1.11.41m13.07 2.45h1.77q.8 0 1.39-.2t.98-.55q.38-.35.57-.83.19-.49.19-1.07 0-1.15-.76-1.77-.77-.62-2.33-.62h-1.81zm5.23 2.35 3.8 5.61h-2.55q-.72 0-1.05-.57l-3.19-4.86q-.18-.27-.39-.39-.22-.11-.64-.11h-1.21v5.93h-2.82v-15.18h4.63q1.54 0 2.65.32t1.82.89q.71.58 1.04 1.39.34.8.34 1.76 0 .77-.23 1.45-.22.69-.65 1.24-.42.56-1.05.98-.62.42-1.42.66.27.16.5.37.23.22.42.51m9.81-5.33q1.2 0 2.18.39t1.68 1.1 1.08 1.74q.37 1.03.37 2.3 0 1.28-.37 2.31-.38 1.03-1.08 1.76-.7.72-1.68 1.11t-2.18.39q-1.21 0-2.19-.39-.99-.39-1.69-1.11-.7-.73-1.08-1.76t-.38-2.31q0-1.27.38-2.3t1.08-1.74 1.69-1.1q.98-.39 2.19-.39m0 9.1q1.34 0 1.99-.9t.65-2.65q0-1.74-.65-2.65-.65-.92-1.99-.92-1.36 0-2.02.92t-.66 2.65q0 1.74.66 2.64.66.91 2.02.91m12.06-9.1q1.2 0 2.18.39.99.39 1.68 1.1.7.71 1.08 1.74t.38 2.3q0 1.28-.38 2.31t-1.08 1.76q-.69.72-1.68 1.11-.98.39-2.18.39t-2.19-.39-1.69-1.11q-.69-.73-1.08-1.76-.38-1.03-.38-2.31 0-1.27.38-2.3.39-1.03 1.08-1.74.7-.71 1.69-1.1t2.19-.39m0 9.1q1.35 0 1.99-.9.65-.9.65-2.65 0-1.74-.65-2.65-.64-.92-1.99-.92-1.36 0-2.02.92-.65.92-.65 2.65 0 1.74.65 2.64.66.91 2.02.91m9.9 1.84h-2.6v-10.77h1.59q.5 0 .66.47l.17.8q.28-.32.59-.58t.66-.45.76-.3q.4-.11.89-.11 1.01 0 1.67.55t.98 1.46q.25-.53.63-.91.38-.39.83-.63t.96-.36q.51-.11 1.03-.11.89 0 1.58.27t1.17.8q.47.52.72 1.28.24.76.24 1.73v6.86h-2.59v-6.86q0-1.03-.45-1.55t-1.33-.52q-.39 0-.74.14-.34.14-.59.4-.26.25-.41.64t-.15.89v6.86h-2.6v-6.86q0-1.08-.44-1.57-.43-.5-1.27-.5-.57 0-1.06.28-.48.28-.9.76z"/></svg>