<svg xmlns="http://www.w3.org/2000/svg" width="200" height="250" viewBox="0 0 200 250"><rect width="100%" height="100%" fill="#f0f0f0"/><path fill="#333333" d="M54.805 125.115q0 1.75-.58 3.24t-1.63 2.58q-1.06 1.09-2.54 1.7-1.49.61-3.3.61t-3.29-.61q-1.49-.61-2.55-1.7t-1.64-2.58q-.59-1.49-.59-3.24t.59-3.24q.58-1.49 1.64-2.58t2.55-1.7q1.48-.61 3.29-.61 1.21 0 2.27.28 1.07.28 1.96.79t1.6 1.24q.71.74 1.21 1.64.49.9.75 1.96.26 1.05.26 2.22m-3.03 0q0-1.31-.35-2.35t-1-1.77q-.65-.72-1.58-1.11-.93-.38-2.09-.38-1.17 0-2.1.38-.93.39-1.58 1.11-.66.73-1.01 1.77t-.35 2.35.35 2.35 1.01 1.76q.65.72 1.58 1.1.93.39 2.1.39 1.16 0 2.09-.39.93-.38 1.58-1.1t1-1.76.35-2.35m8.71 7.95h-2.71v-9.24l-.98-.15q-.32-.07-.51-.23-.2-.16-.2-.46v-1.11h1.69v-.83q0-.97.29-1.74t.84-1.31q.54-.54 1.32-.82.78-.29 1.76-.29.78 0 1.45.21l-.05 1.36q-.01.16-.09.25t-.2.14q-.13.05-.3.07-.16.02-.35.02-.48 0-.86.1t-.64.36q-.27.26-.41.68-.13.43-.13 1.06v.74h2.93v1.94h-2.85zm7.89 0h-2.72v-9.24l-.97-.15q-.32-.07-.52-.23-.19-.16-.19-.46v-1.11h1.68v-.83q0-.97.3-1.74.29-.77.83-1.31.55-.54 1.33-.82.78-.29 1.76-.29.78 0 1.45.21l-.06 1.36q-.01.16-.08.25-.08.09-.21.14-.12.05-.29.07-.16.02-.35.02-.48 0-.86.1t-.65.36q-.26.26-.4.68-.14.43-.14 1.06v.74h2.94v1.94h-2.85zm4.47-11.29h2.73v11.29h-2.73zm3.1-3.28q0 .35-.14.66-.15.3-.38.53-.24.24-.56.37-.32.14-.68.14-.35 0-.67-.14-.31-.13-.54-.37-.23-.23-.37-.53-.14-.31-.14-.66 0-.37.14-.69t.37-.55.54-.37q.32-.13.67-.13.36 0 .68.13.32.14.56.37.23.23.38.55.14.32.14.69m11.2 4.68-.72.99q-.12.16-.23.24-.12.09-.34.09-.21 0-.41-.13-.19-.12-.47-.28-.27-.16-.65-.29-.38-.12-.94-.12-.72 0-1.26.25-.54.26-.89.75-.36.48-.54 1.17-.17.69-.17 1.55 0 .91.19 1.61.19.71.55 1.18.37.48.88.73.52.25 1.17.25t1.05-.16.68-.35q.27-.2.48-.36.2-.16.45-.16.33 0 .5.26l.78.99q-.45.52-.98.88t-1.1.57q-.56.22-1.16.31-.6.08-1.2.08-1.04 0-1.96-.39-.93-.39-1.62-1.13-.69-.75-1.1-1.84-.4-1.08-.4-2.47 0-1.24.36-2.3t1.05-1.84q.69-.77 1.72-1.21 1.02-.44 2.35-.44 1.27 0 2.22.41.95.4 1.71 1.16m3.95 2.95h5.12q0-.53-.15-1-.14-.46-.44-.82-.3-.35-.75-.55-.46-.2-1.07-.2-1.17 0-1.85.67t-.86 1.9m6.93 1.64h-6.99q.07.87.31 1.5t.64 1.04q.39.42.94.62.54.2 1.2.2t1.14-.15.84-.34q.35-.19.62-.34.27-.16.53-.16.34 0 .5.26l.78.99q-.45.52-1.01.88t-1.17.57q-.61.22-1.24.31-.64.08-1.23.08-1.18 0-2.19-.39t-1.76-1.15q-.75-.77-1.18-1.89-.42-1.13-.42-2.61 0-1.16.37-2.18.37-1.01 1.07-1.77.7-.75 1.71-1.19 1-.44 2.27-.44 1.07 0 1.97.34t1.55.99q.65.66 1.02 1.61.36.95.36 2.17 0 .62-.13.83-.13.22-.5.22m11.4-3.04h1.85q.84 0 1.46-.21t1.02-.57q.4-.37.6-.88.2-.5.2-1.11 0-1.21-.8-1.86t-2.43-.65h-1.9zm5.48 2.47 3.98 5.87h-2.67q-.76 0-1.1-.59l-3.34-5.1q-.19-.28-.42-.4-.22-.12-.66-.12h-1.27v6.21h-2.96v-15.91h4.86q1.61 0 2.77.34t1.91.94q.74.61 1.09 1.45t.35 1.85q0 .8-.23 1.52-.24.71-.69 1.3-.44.58-1.1 1.02-.65.44-1.49.69.29.17.53.39.24.23.44.54m10.28-5.59q1.25 0 2.28.41 1.03.4 1.76 1.15t1.13 1.83q.39 1.07.39 2.4 0 1.35-.39 2.43-.4 1.07-1.13 1.83t-1.76 1.17q-1.03.4-2.28.4-1.27 0-2.3-.4-1.04-.41-1.77-1.17t-1.13-1.83q-.4-1.08-.4-2.43 0-1.33.4-2.4.4-1.08 1.13-1.83t1.77-1.15q1.03-.41 2.3-.41m0 9.54q1.4 0 2.08-.95t.68-2.77q0-1.83-.68-2.79-.68-.95-2.08-.95-1.43 0-2.12.96t-.69 2.78q0 1.81.69 2.76.69.96 2.12.96m12.63-9.54q1.26 0 2.29.41 1.03.4 1.76 1.15t1.12 1.83q.4 1.07.4 2.4 0 1.35-.4 2.43-.39 1.07-1.12 1.83t-1.76 1.17q-1.03.4-2.29.4t-2.29-.4q-1.04-.41-1.77-1.17t-1.13-1.83q-.4-1.08-.4-2.43 0-1.33.4-2.4.4-1.08 1.13-1.83t1.77-1.15q1.03-.41 2.29-.41m0 9.54q1.41 0 2.09-.95t.68-2.77q0-1.83-.68-2.79-.68-.95-2.09-.95-1.43 0-2.11.96-.69.96-.69 2.78 0 1.81.69 2.76.68.96 2.11.96m10.37 1.92h-2.72v-11.29h1.66q.53 0 .69.5l.18.83q.3-.33.62-.6.33-.27.69-.47.37-.2.8-.32.42-.11.93-.11 1.06 0 1.75.58.69.57 1.03 1.53.26-.56.66-.96.39-.4.87-.66.47-.25 1-.37.54-.12 1.08-.12.93 0 1.66.28.72.29 1.22.84.49.55.75 1.34t.26 1.82v7.18h-2.72v-7.18q0-1.08-.47-1.63-.47-.54-1.39-.54-.41 0-.77.14-.36.15-.63.42-.27.26-.42.67-.16.41-.16.94v7.18h-2.72v-7.18q0-1.14-.46-1.65-.46-.52-1.34-.52-.59 0-1.1.29t-.95.8z"/></svg>